<?xml version="1.0" standalone="no"?>
<!DOCTYPE svg PUBLIC "-//W3C//DTD SVG 20010904//EN"
 "http://www.w3.org/TR/2001/REC-SVG-20010904/DTD/svg10.dtd">
<svg version="1.0" xmlns="http://www.w3.org/2000/svg"
 width="1024.000000pt" height="1024.000000pt" viewBox="0 0 1024.000000 1024.000000"
 preserveAspectRatio="xMidYMid meet">

<g transform="translate(0.000000,1024.000000) scale(0.100000,-0.100000)"
fill="#00A6ED" stroke="none">
<path d="M4275 7033 c-240 -10 -398 -24 -432 -38 -80 -33 -126 -101 -126 -184
0 -68 19 -107 75 -155 51 -44 81 -52 224 -60 195 -11 385 -52 535 -116 80 -34
170 -91 166 -104 -2 -5 -59 -29 -128 -52 -386 -130 -880 -375 -1244 -616 l-99
-66 -85 90 c-46 49 -92 100 -102 112 -39 50 -357 325 -470 408 -159 116 -329
217 -392 234 -136 37 -270 -52 -284 -188 -7 -72 14 -118 107 -228 257 -305
427 -616 485 -889 14 -68 14 -74 -10 -165 -75 -290 -237 -572 -507 -886 -56
-66 -78 -114 -78 -172 1 -86 54 -159 144 -199 65 -28 125 -21 224 26 98 47
333 202 452 300 102 84 355 333 462 454 l65 74 114 -74 c235 -151 578 -332
827 -435 50 -21 92 -42 92 -46 0 -18 -235 -182 -459 -321 -131 -81 -155 -213
-59 -321 52 -60 110 -80 193 -66 221 36 652 199 995 376 l165 86 115 -16 c114
-16 278 -33 375 -38 l50 -3 -3 -35 c-5 -64 -43 -243 -83 -396 -21 -83 -39
-170 -39 -193 0 -100 91 -191 193 -191 73 0 140 42 263 164 167 166 315 356
451 577 l65 106 156 31 c124 25 407 98 490 127 9 3 0 20 -28 52 -208 243 -358
558 -416 876 -23 122 -23 396 -1 527 33 193 102 394 194 560 53 96 149 237
205 302 43 51 47 58 31 66 -37 20 -338 112 -436 134 -89 19 -108 28 -152 64
-331 277 -910 465 -1552 504 -154 9 -543 11 -728 3z m1875 -1674 c90 -19 160
-107 160 -199 0 -85 -76 -187 -155 -209 -49 -13 -741 -15 -799 -1 -144 33
-205 226 -109 341 29 35 73 60 123 70 59 12 723 10 780 -2z"/>
<path d="M7465 6068 c-244 -268 -369 -584 -368 -933 1 -353 130 -658 408 -967
l42 -47 119 62 c365 192 669 437 896 719 161 201 129 353 -130 615 -161 163
-358 317 -582 455 -118 72 -294 168 -309 168 -5 0 -39 -33 -76 -72z m407 -699
c81 -41 131 -121 131 -209 0 -145 -140 -254 -283 -220 -132 32 -207 162 -168
291 15 52 68 112 120 138 58 28 144 28 200 0z"/>
</g>
</svg>
